<?xml version="1.0" encoding="UTF-8" standalone="no"?>
<svg
   xmlns:dc="http://purl.org/dc/elements/1.1/"
   xmlns:cc="http://creativecommons.org/ns#"
   xmlns:rdf="http://www.w3.org/1999/02/22-rdf-syntax-ns#"
   xmlns:svg="http://www.w3.org/2000/svg"
   xmlns="http://www.w3.org/2000/svg"
   xmlns:sodipodi="http://sodipodi.sourceforge.net/DTD/sodipodi-0.dtd"
   xmlns:inkscape="http://www.inkscape.org/namespaces/inkscape"
   sodipodi:docname="GratingSheet.svg"
   inkscape:version="1.0 (4035a4fb49, 2020-05-01)"
   width="210mm"
   height="297mm"
   viewBox="0 0 210 297"
   version="1.1"
   id="svg8">
  <defs
     id="defs2" />
  <sodipodi:namedview
     inkscape:window-maximized="0"
     inkscape:window-y="0"
     inkscape:window-x="0"
     inkscape:window-height="680"
     inkscape:window-width="1267"
     showgrid="false"
     inkscape:document-rotation="0"
     inkscape:current-layer="layer1"
     inkscape:document-units="mm"
     inkscape:cy="423.40261"
     inkscape:cx="274.06261"
     inkscape:zoom="0.7"
     inkscape:pageshadow="2"
     inkscape:pageopacity="0.0"
     borderopacity="1.0"
     bordercolor="#666666"
     pagecolor="#ffffff"
     id="base" />
  <metadata
     id="metadata5">
    <rdf:RDF>
      <cc:Work
         rdf:about="">
        <dc:format>image/svg+xml</dc:format>
        <dc:type
           rdf:resource="http://purl.org/dc/dcmitype/StillImage" />
        <dc:title></dc:title>
      </cc:Work>
    </rdf:RDF>
  </metadata>
  <g
     id="layer1"
     inkscape:groupmode="layer"
     inkscape:label="Layer 1">
    <path
       id="path994"
       style="fill:none;stroke:#000000;stroke-width:0.0132292px"
       d="M 16.102889,35.156348 V 185.15635 M 51.107264,35.156348 V 185.15635 M 86.111641,35.156348 V 185.15635 M 121.11601,35.156348 V 185.15635 M 156.12038,35.156348 V 185.15635 M 16.102889,35.156348 H 191.10289 M 16.102889,42.665222 H 191.10289 M 16.102889,50.174097 H 191.10289 M 16.102889,57.682971 H 191.10289 M 16.102889,65.191846 H 191.10289 M 16.102889,72.700721 H 191.10289 M 16.102889,80.209599 H 191.10289 M 16.102889,87.718469 H 191.10289 M 16.102889,95.227349 H 191.10289 M 16.102889,102.73622 H 191.10289 M 16.102889,110.2451 H 191.10289 M 16.102889,117.75397 H 191.10289 M 16.102889,125.26285 H 191.10289 M 16.102889,132.77172 H 191.10289 M 16.102889,140.2806 H 191.10289 M 16.102889,147.78947 H 191.10289 M 16.102889,155.29835 H 191.10289 M 16.102889,162.80722 H 191.10289 M 16.102889,170.31609 H 191.10289 M 16.102889,177.82497 H 191.10289" />
  </g>
</svg>
