999
"DXF R12 Output" (www.mydxf.blogspot.com)
 0 
SECTION
 2 
HEADER
 9 
$ACADVER
 1 
AC1009
 9 
$EXTMIN
 10 
 0 
 20 
 0 
 9 
$EXTMAX
 10 
 8.5 
 20 
 11 
 0 
ENDSEC
 0 
SECTION
 2 
ENTITIES
0
LINE
8
Layer 1
10
33.053600
20
37.785700
11
171.067600
21
37.785690
0
LINE
8
Layer 1
10
33.053600
20
45.235700
11
171.067600
21
45.235690
0
LINE
8
Layer 1
10
33.053600
20
37.785700
11
33.053600
21
225.286000
0
LINE
8
Layer 1
10
33.053600
20
52.785700
11
171.068000
21
52.785700
0
LINE
8
Layer 1
10
33.053600
20
60.285700
11
171.068000
21
60.285700
0
LINE
8
Layer 1
10
33.053600
20
67.785700
11
171.068000
21
67.785700
0
LINE
8
Layer 1
10
33.053600
20
75.285700
11
171.067600
21
75.285690
0
LINE
8
Layer 1
10
33.053600
20
82.735700
11
171.068000
21
82.735700
0
LINE
8
Layer 1
10
33.053600
20
90.285700
11
171.067600
21
90.285690
0
LINE
8
Layer 1
10
33.053600
20
97.785700
11
171.067600
21
97.785690
0
LINE
8
Layer 1
10
33.053600
20
105.286000
11
171.067600
21
105.285990
0
LINE
8
Layer 1
10
33.053600
20
112.786000
11
171.068000
21
112.786000
0
LINE
8
Layer 1
10
33.053600
20
120.236000
11
171.068000
21
120.236000
0
LINE
8
Layer 1
10
33.053600
20
127.786000
11
171.068000
21
127.786000
0
LINE
8
Layer 1
10
33.053600
20
135.286000
11
171.068000
21
135.286000
0
LINE
8
Layer 1
10
33.053600
20
142.786000
11
171.068000
21
142.786000
0
LINE
8
Layer 1
10
33.053600
20
150.286000
11
171.067600
21
150.285990
0
LINE
8
Layer 1
10
33.053600
20
157.736000
11
171.067600
21
157.735990
0
LINE
8
Layer 1
10
33.053600
20
165.286000
11
171.067600
21
165.285990
0
LINE
8
Layer 1
10
33.053600
20
172.786000
11
171.067600
21
172.785990
0
LINE
8
Layer 1
10
33.053600
20
180.286000
11
171.068000
21
180.286000
0
LINE
8
Layer 1
10
33.053600
20
187.736000
11
171.067600
21
187.735990
0
LINE
8
Layer 1
10
33.053600
20
195.286000
11
171.067600
21
195.285990
0
LINE
8
Layer 1
10
33.053600
20
202.786000
11
171.067600
21
202.785990
0
LINE
8
Layer 1
10
33.053600
20
210.286000
11
171.067600
21
210.285990
0
LINE
8
Layer 1
10
33.053600
20
217.786000
11
171.067600
21
217.785990
0
LINE
8
Layer 1
10
33.053600
20
225.286000
11
171.067600
21
225.285980
0
LINE
8
Layer 1
10
171.054000
20
37.785700
11
171.054000
21
225.286000
0
LINE
8
Layer 1
10
56.053600
20
37.785700
11
56.053600
21
225.286000
0
LINE
8
Layer 1
10
79.053600
20
37.785700
11
79.053600
21
225.286000
0
LINE
8
Layer 1
10
102.054000
20
37.785700
11
102.054000
21
225.286000
0
LINE
8
Layer 1
10
125.054000
20
37.785700
11
125.054000
21
225.286000
0
LINE
8
Layer 1
10
148.054000
20
37.785700
11
148.054000
21
225.286000
 0 
ENDSEC
 0 
EOF